<?xml version="1.0" standalone="no"?><!DOCTYPE svg PUBLIC "-//W3C//DTD SVG 1.1//EN" "http://www.w3.org/Graphics/SVG/1.1/DTD/svg11.dtd"><svg class="icon" width="48px" height="48.00px" viewBox="0 0 1024 1024" version="1.1" xmlns="http://www.w3.org/2000/svg"><path d="M610.006303 796.728174c0-63.010927 0.309213-86.92684-47.148895-126.588062-42.871102-35.824724-134.006111-45.236278-197.031373-45.236277-69.691779 0-147.614571 8.19313-188.646775 45.236277-37.080007 33.506647-48.008959 49.335914-48.008959 126.588062h480.836002zM524.144304 435.894604c0 85.413538-69.19417 154.64252-154.556514 154.64252s-154.55549-69.228982-154.55549-154.64252c0-85.413538 69.19417-154.64252 154.55549-154.64252 85.363367 0 154.556514 69.247412 154.556514 154.64252zM894.518438 640.828323c0 12.021438-12.994129 21.767802-29.024077 21.767802H668.134321c-16.028925 0-29.024077-9.746364-29.024077-21.767802 0-12.021438 12.994129-21.767802 29.024077-21.767802h197.36004c16.028925 0 29.024077 9.746364 29.024077 21.767802zM813.25266 768.44539c0 12.021438-12.994129 21.767802-29.024078 21.767802H668.134321c-16.028925 0-29.024077-9.746364-29.024077-21.767802 0-12.021438 12.994129-21.767802 29.024077-21.767802h116.094261c16.028925 0 29.024077 9.746364 29.024078 21.767802zM853.884525 512.474059c0 12.021438-12.994129 21.767802-29.024077 21.767802h-156.726127c-16.028925 0-29.024077-9.746364-29.024077-21.767802 0-12.021438 12.994129-21.767802 29.024077-21.767802h156.726127c16.029949 0 29.024077 9.746364 29.024077 21.767802z" fill="#F15A4A" /><path d="M910.948726 113.045131H112.801446c-24.043899 0-43.535604 19.491705-43.535604 43.535604v711.076071c0 24.042875 19.490681 43.535604 43.535604 43.535604h798.146256c24.042875 0 43.535604-19.491705 43.535604-43.535604V156.580735c0-24.043899-19.491705-43.535604-43.53458-43.535604z m0 715.825875c0 21.419681-17.573968 38.7858-39.253716 38.7858H152.055162c-21.679748 0-39.253716-17.366119-39.253716-38.7858V195.366535c0-21.420705 17.573968-38.7858 39.253716-38.7858h719.639848c21.679748 0 39.253716 17.365095 39.253716 38.7858v633.504471z" fill="#F15A4A" /></svg>