<?xml version="1.0" standalone="no"?><!DOCTYPE svg PUBLIC "-//W3C//DTD SVG 1.1//EN" "http://www.w3.org/Graphics/SVG/1.1/DTD/svg11.dtd"><svg t="1502863348472" class="icon" style="" viewBox="0 0 1024 1024" version="1.1" xmlns="http://www.w3.org/2000/svg" p-id="3625" xmlns:xlink="http://www.w3.org/1999/xlink" width="64" height="64"><defs><style type="text/css"></style></defs><path d="M255.203556 118.385778h533.333333c70.897778 0 128.398222 57.486222 128.398222 128.384v533.646222c0 70.897778-57.500444 128.384-128.398222 128.384h-533.333333a128.398222 128.398222 0 0 1-128.398223-128.384V246.784a128.412444 128.412444 0 0 1 128.398223-128.398222z" fill="#1296db" p-id="3626" class="selected"></path><path d="M457.699556 630.428444a166.968889 166.968889 0 0 1 48.796444-117.873777 166.257778 166.257778 0 0 1 75.377778-43.306667c0.967111-3.2 1.834667-6.485333 2.702222-9.770667a21.76 21.76 0 0 0 8.206222-4.750222c2.318222-2.033778 4.451556-4.935111 6.272-8.504889 1.948444-3.683556 3.285333-8.519111 4.167111-14.592a35.740444 35.740444 0 0 0-0.199111-11.704889 27.249778 27.249778 0 0 0-2.801778-7.822222 11.861333 11.861333 0 0 0-4.736-5.219555 210.261333 210.261333 0 0 0-2.218666-34.801778 200.618667 200.618667 0 0 0-7.623111-31.530667 101.475556 101.475556 0 0 0-16.327111-30.634667 66.403556 66.403556 0 0 0-12.572445-12.003555 108.771556 108.771556 0 0 0-17.792-10.624 120.192 120.192 0 0 0-21.546667-7.836445 94.293333 94.293333 0 0 0-24.163555-3.000888c-6.670222 0-13.624889 0.583111-20.679111 1.735111-7.054222 1.166222-14.108444 3.2-21.063111 6.101333s-13.923556 6.954667-20.679111 11.989333-12.956444 11.52-18.460445 19.328a96.099556 96.099556 0 0 0-13.240889 28.231111c-2.986667 10.439111-5.12 20.309333-6.272 29.582223-1.450667 11.022222-2.033778 22.044444-1.749333 33.066666a32.099556 32.099556 0 0 0-5.219556 9.088 41.770667 41.770667 0 0 0-2.417777 10.254223c-0.384 3.854222 0.099556 8.32 1.536 13.255111 1.450667 4.935111 3.2 8.689778 5.219555 11.306666s3.868444 4.636444 5.603556 6.101334c2.033778 1.351111 4.067556 2.417778 6.087111 3.000889 1.450667 4.636444 2.901333 9.088 4.352 13.425777 1.450667 3.783111 3.000889 7.537778 4.736 11.121778 1.749333 3.669333 3.768889 6.471111 6.087111 8.504889 4.935111 4.067556 9.372444 7.936 13.240889 11.704889 3.968 3.768889 6.186667 9.088 6.769778 16.042667 0.284444 4.352 0.483556 8.419556 0.483555 12.174222 0 3.783111-0.668444 7.352889-1.934222 10.837333a32.910222 32.910222 0 0 1-6.954667 10.439111c-3.285333 3.470222-8.021333 7.054222-14.108444 10.823111a88.945778 88.945778 0 0 1-26.282667 11.320889c-9.955556 2.616889-53.731556 17.692444-63.118222 20.878222-9.372444 3.2-17.592889 7.537778-24.547556 13.056s-11.306667 13.639111-13.041777 24.362667c-2.901333 18.574222-3.484444 21.575111-1.934223 33.464889s3.968 18.944 7.153778 21.262222c2.616889 2.033778 10.140444 4.451556 22.613333 7.153778 11.591111 2.517333 80.896 15.672889 164.295112 17.408a182.784 182.784 0 0 1-8.988445-18.076444 168.533333 168.533333 0 0 1-13.027555-64.967112z m296.803555-15.374222c-1.066667-5.802667-6.670222-11.690667-12.472889-13.056l-4.352-0.952889a43.207111 43.207111 0 0 1-29.568-51.441777l1.351111-4.053334c1.735111-5.617778-0.483556-13.44-5.034666-17.308444 0 0-4.053333-3.484444-15.559111-10.055111s-16.426667-8.419556-16.426667-8.419556c-5.617778-2.033778-13.44-0.099556-17.493333 4.266667l-2.986667 3.271111c-7.736889 7.352889-18.176 11.804444-29.681778 11.804444a42.666667 42.666667 0 0 1-29.752889-11.904l-2.915555-3.086222c-4.053333-4.366222-11.889778-6.286222-17.479111-4.266667 0 0-5.020444 1.848889-16.512 8.419556-11.52 6.670222-15.573333 10.154667-15.573334 10.154667-4.536889 3.768889-6.769778 11.505778-5.034666 17.208889l1.265777 4.152888a43.377778 43.377778 0 0 1-4.636444 31.701334 42.780444 42.780444 0 0 1-25.130667 19.825778l-4.152889 0.967111c-5.703111 1.365333-11.406222 7.153778-12.458666 13.056 0 0-0.967111 5.219556-0.967111 18.460444 0 13.255111 0.967111 18.474667 0.967111 18.474667 1.066667 5.902222 6.670222 11.690667 12.458666 13.056l4.067556 0.952889a43.278222 43.278222 0 0 1 29.866667 51.541333l-1.166223 4.053333c-1.735111 5.617778 0.483556 13.44 5.034667 17.308445 0 0 4.053333 3.484444 15.559111 10.055111 11.505778 6.670222 16.426667 8.419556 16.426667 8.419555 5.603556 2.033778 13.425778 0.099556 17.479111-4.266666l2.915555-3.086222c7.822222-7.352889 18.247111-11.904 29.752889-11.904s22.044444 4.551111 29.781334 11.904l2.887111 3.086222c4.053333 4.366222 11.889778 6.286222 17.493333 4.266666 0 0 5.034667-1.848889 16.526222-8.419555 11.505778-6.670222 15.559111-10.055111 15.559111-10.055111 4.536889-3.768889 6.769778-11.591111 5.034667-17.308445l-1.251555-4.152889a43.121778 43.121778 0 0 1 4.636444-31.630222 42.951111 42.951111 0 0 1 25.216-19.825778l4.053333-0.952888c5.688889-1.365333 11.406222-7.153778 12.472889-13.056 0 0 0.952889-5.219556 0.952889-18.474667-0.298667-13.511111-1.152-18.730667-1.152-18.730667z m-132.309333 71.736889a53.105778 53.105778 0 1 1 0-106.24 53.176889 53.176889 0 0 1 53.134222 53.162667 53.105778 53.105778 0 0 1-53.134222 53.077333z" fill="#FFFFFF" p-id="3627"></path></svg>