<?xml version="1.0" standalone="no"?><!DOCTYPE svg PUBLIC "-//W3C//DTD SVG 1.1//EN" "http://www.w3.org/Graphics/SVG/1.1/DTD/svg11.dtd"><svg class="icon" width="1024px" height="1024.00px" viewBox="0 0 1024 1024" version="1.1" xmlns="http://www.w3.org/2000/svg"><path d="M342.187 297.734C153.175 297.734 0 397.804 0 521.289c0 98.985 98.487 182.845 234.887 212.279-4.597 45.6-28.287 127.9-136.332 162.105 0 0 189.61 14.335 339.747-159.825 142.137-27.17 246.042-112.925 246.042-214.559C684.343 397.804 531.159 297.734 342.187 297.734zM347.909 707.143c-11.91 0-21.557-9.46-21.557-21.155 0-11.765 9.647-21.185 21.557-21.185 11.905 0 21.517 9.42 21.517 21.185C369.427 697.688 359.814 707.143 347.909 707.143zM368.212 588.823l0 40.17c0 11.695-9.158 21.135-20.45 21.135-11.272 0-20.412-9.44-20.412-21.135l0-57.48c0-11.66 9.14-21.115 20.412-21.115 0.362 0 0.705 0.07 1.087 0.13l0-0.06c30.89 0 56.082-25.53 56.082-55.945 0-30.395-25.047-55.025-55.94-55.025-30.912 0-55.94 24.63-55.94 55.025 0 7.55 1.557 14.755 4.362 21.315 0 0.07 0.02 0.07 0.035 0.14l0.02 0.015c1.027 2.44 1.608 5.125 1.608 7.96 0 11.395-9.41 20.695-21.047 20.695-7.852 0-14.675-4.38-18.277-10.7l-0.017 0c-0.02-0.035-0.02-0.035-0.02-0.06-0.958-1.71-1.773-3.58-2.208-5.485-4.052-10.555-6.425-21.945-6.425-33.88 0-53.225 43.832-96.37 97.907-96.37 54.04 0 97.89 43.145 97.89 96.37C446.881 541.209 413.024 580.049 368.212 588.823zM1023.997 292.179c0-90.615-112.48-164.14-251.219-164.14-115.69 0-212.894 51.16-242.054 120.745 138.76 37.945 236.629 129.15 236.629 235.819 0 7.745-0.725 15.405-1.72 23.025 93.75 66.375 186.005 59.42 186.005 59.42-79.34-25.06-96.73-85.56-100.095-119C951.678 426.449 1023.997 364.824 1023.997 292.179zM769.183 223.324c0-12.505 10.28-22.635 22.93-22.635 12.665 0 22.91 10.13 22.91 22.635l0 86.465c0 12.465-10.245 22.56-22.91 22.56-12.65 0-22.93-10.095-22.93-22.56L769.183 223.324zM792.203 392.494c-13.195 0-23.925-10.555-23.925-23.555 0-12.995 10.73-23.555 23.925-23.555 13.265 0 23.955 10.555 23.955 23.555S805.468 392.494 792.203 392.494z" fill="#2aa515" /></svg>