<?xml version="1.0" standalone="no"?><!DOCTYPE svg PUBLIC "-//W3C//DTD SVG 1.1//EN" "http://www.w3.org/Graphics/SVG/1.1/DTD/svg11.dtd"><svg class="icon" width="48px" height="48.00px" viewBox="0 0 1024 1024" version="1.1" xmlns="http://www.w3.org/2000/svg"><path d="M877 408.7c-43.1-43.3-99.2-71.3-159.7-79.6v-95h-0.1l0.1-2.1c0-29.9-31.4-55.3-90.9-73.4-52.9-16.1-123.1-25-197.4-25-74.3 0-144.4 8.9-197.4 25-59.4 18-90.9 43.4-90.9 73.4 0 2.1 0.2 4.1 0.5 6.2h-0.2v68.5c-9.6 4-18.9 8.4-28 13.4-32.5 18.2-48.9 39-48.8 61.6 0 2.1 0.2 4.1 0.6 6.2h-0.1v105.4h-0.3c0 14.9 6.6 28.7 19.6 41.1 13 12.4 32.5 22.9 56 31.7v88.4h-0.2c0 15.3 7.1 29.7 21.2 43 46.4 43.3 165.9 67.9 263.8 67.9 6.8 0 13.4-0.1 19.9-0.3 10 14.8 21.5 28.7 34.3 41.5 52.7 52.9 124.3 82.6 198.9 82.4 75.2 0 145.8-29.3 198.9-82.4 53.2-53.2 82.4-123.7 82.4-198.9 0.4-74.7-29.3-146.4-82.2-199m-705-82.3v-47.1c14.8 9.8 34.7 18.7 59.5 26.2 52.9 16.1 123.1 25 197.4 25 74.3 0 144.5-8.9 197.4-25 25.1-7.6 45.2-16.6 60-26.6v47.6l-8.2-0.2c-81.7-0.3-159.5 35.3-212.8 97.3-124.5 5.4-249.5-27.5-284.7-61-5.1-4.9-7.9-9.4-7.9-12.8h-0.7v-21.5c0.2-0.1 0.4-0.1 0.6-0.2l-0.6-1.7m68.6-138.1c50.1-15.2 117-23.6 188.3-23.6s138.3 8.4 188.4 23.6c50.9 15.4 68.9 33.2 68.9 43.8s-18 28.3-68.9 43.8c-50.1 15.2-117.1 23.6-188.4 23.6s-138.3-8.4-188.3-23.6c-50.9-15.4-68.9-33.2-68.9-43.8s18-28.4 68.9-43.8M141 340.6v9.2h0.6c0 12.3 5.9 24.2 17.6 35.3 42.6 40.6 162.4 69.9 278.1 70.1-92.9 11.2-165.2 2.7-209.9-6.4-52.4-10.8-97.2-29.1-119.8-49-9.1-8-12.4-14.4-12.4-17.9 0-13.6 20.4-29.1 45.8-41.3M105.4 512c-5.8-5.5-9-10.6-9.8-15.9v-66.3c28 20.7 72.9 38.4 125.6 49.2 40.1 8.3 83.5 12.4 128.5 12.4 24.2 0 48.9-1.2 73.7-3.6-11.8 25-19.7 51.5-23.7 79.2-59.1 2.8-118.3-0.9-176.6-11-56.9-10.2-98.7-25.9-117.7-44m292 114.7c-78 2-151.3-19.6-192.4-42.6 63.2 12.2 127.6 16.9 191.9 14-0.1 3.2-0.2 6.3-0.2 9.5 0.1 6.4 0.4 12.8 0.7 19.1m-215.3 48c-7.2-6.7-11-13.1-11.4-19.3h0.2V599c23.2 17.1 58.6 32.7 99.4 43.5 28.5 7.6 69.4 15.3 116.8 15.3 4.6 0 9.2-0.1 13.9-0.2 4.8 26.8 13.4 52.5 25.6 76.7-97.5 0.5-207.9-25.5-244.5-59.6m496 183.1c-138.2-0.2-250.1-112.1-250.3-250.3 0.2-138.2 112.1-250.1 250.3-250.3 138.2 0.1 250.2 112.1 250.4 250.3-0.2 138.2-112.2 250.2-250.4 250.3m82-407.6L710.3 542c-13.3 24.9-21.4 41.5-24.4 49.6h-0.8c-8.8-19.9-33.6-67-74.3-141.4H564l87.1 149.7h-71.4v33h83.8v45.6h-83.8V712h83.8v66.4H705V712h80.7v-33.5H705V633h80.7v-33h-69.3l87.9-149.7h-44.2m0-0.1z" fill="#d4237a" /></svg>