<?xml version="1.0" standalone="no"?><!DOCTYPE svg PUBLIC "-//W3C//DTD SVG 1.1//EN" "http://www.w3.org/Graphics/SVG/1.1/DTD/svg11.dtd"><svg class="icon" width="48px" height="48.00px" viewBox="0 0 1024 1024" version="1.1" xmlns="http://www.w3.org/2000/svg"><path d="M655.467017 127.420041 367.243617 127.420041c-79.410608 0-143.821593 64.584947-143.821593 144.168494l0 479.452723c0 26.724665 21.459754 48.273447 47.998177 48.373731l0 47.521317c0 27.188222 21.461801 48.461735 47.91222 48.461735l48.084135 0c26.711362 0 47.882544-21.649066 47.882544-48.461735l0-47.521317L607.294878 799.414989l0 47.521317c0 27.188222 21.461801 48.461735 47.882544 48.461735l48.085158 0c26.740014 0 47.914266-21.649066 47.914266-48.461735l0-47.521317c26.246781-0.101307 47.998177-21.649066 47.998177-48.373731L799.175023 271.588535C799.259958 191.8167 734.848972 127.420041 655.467017 127.420041L655.467017 127.420041 655.467017 127.420041zM391.590118 751.328807l-78.545914 0c-23.047926 0-41.624003-18.561751-41.624003-41.24845l0-13.398148c0-22.773679 17.654079-35.334763 39.374776-28.224832l82.121346 27.373441c12.461823 4.225231 22.500457 18.662035 22.500457 31.498388C415.299099 740.542136 404.914588 751.328807 391.590118 751.328807L391.590118 751.328807 391.590118 751.328807zM751.260757 710.080358c0 22.773679-18.661012 41.24845-41.62298 41.24845l-78.545914 0c-13.413498 0-23.712051-10.786671-23.712051-23.998577 0-12.836353 10.126638-27.373441 22.499433-31.498388l82.122369-27.373441c21.63474-7.212262 39.346123 5.349845 39.346123 28.122501l0 13.499455L751.260757 710.080358 751.260757 710.080358zM751.260757 607.347578 271.33322 607.347578 271.33322 271.402293c0-18.187221 6.288217-40.399105 47.998177-48.000224l383.931183 0c35.335786 7.601118 47.998177 30.750351 47.998177 48.000224L751.260757 607.347578 751.260757 607.347578 751.260757 607.347578zM751.260757 607.347578" fill="#1AAD19" /></svg>