<?xml version="1.0" standalone="no"?><!DOCTYPE svg PUBLIC "-//W3C//DTD SVG 1.1//EN" "http://www.w3.org/Graphics/SVG/1.1/DTD/svg11.dtd"><svg t="1502182978887" class="icon" style="" viewBox="0 0 1398 1024" version="1.1" xmlns="http://www.w3.org/2000/svg" p-id="3424" xmlns:xlink="http://www.w3.org/1999/xlink" width="87.375" height="64"><defs><style type="text/css"></style></defs><path d="M532.48 853.504c-3.584 0-7.168-2.56-7.68-6.656-5.12-41.984 15.36-129.536 31.744-176.128 17.408-49.152 96.256-73.728 99.328-75.264 4.096-1.024 8.192 1.024 9.216 5.12 1.024 4.096-1.024 8.192-5.12 9.216-0.512 0.512-74.752 23.04-89.6 65.536-15.872 44.032-35.84 129.536-31.232 168.96 0.512 4.096-2.048 7.68-6.144 8.192 0.512 1.024 0 1.024-0.512 1.024z" fill="#040000" p-id="3425"></path><path d="M906.752 684.032c14.848 29.696 24.576 164.864 24.576 164.864l-397.824 3.072c-12.288-30.72 21.504-150.528 42.496-187.392s67.584-47.616 67.584-47.616l34.304-19.968 15.36 50.688 35.84-28.16 39.936 32.256 14.336-54.272 50.688 49.664-10.24-34.816c0.512 0 80.384 39.936 82.944 71.68" fill="#7FBAE6" p-id="3426"></path><path d="M733.696 627.712l16.896 99.84 12.8-77.824-29.696-22.016z m-3.584-5.632l-15.872 120.832-11.776-93.184 27.648-27.648z" fill="#FFFFFF" p-id="3427"></path><path d="M711.168 719.872c1.024-1.536 19.968-106.496 19.968-106.496l22.528 107.52-13.312 125.44-13.824-0.512-15.36-125.952z" fill="#BF3120" p-id="3428"></path><path d="M901.12 221.696c-16.384-30.72-54.272-38.4-54.272-38.4-62.464-60.928-131.072-49.664-151.552-45.568-55.296 11.776-93.184 46.08-117.76 85.504 0 0-53.76 98.816 15.36 198.144 0 0-2.56-70.144 22.016-95.744 24.576-25.088 139.776-30.72 200.704-96.768 0 0 7.168 51.712 31.232 70.656s46.592 52.736 43.008 86.016c-3.584 33.28 55.808-79.36 11.264-163.84z" fill="#2E1A0A" p-id="3429"></path><path d="M421.376 375.296h-48.128c-4.096 0-7.68-3.584-7.68-7.68s3.584-7.68 7.68-7.68h48.64c4.096 0 7.68 3.584 7.68 7.68-0.512 4.096-4.096 7.68-8.192 7.68z m-97.792 0H168.96c-4.096 0-7.68-3.584-7.68-7.68s3.584-7.68 7.68-7.68h154.112c4.096 0 7.68 3.584 7.68 7.68s-3.072 7.68-7.168 7.68z" fill="#50B676" p-id="3430"></path><path d="M101.376 558.08c0 12.8 10.24 23.04 23.04 23.04s23.04-10.24 23.04-23.04-10.24-23.04-23.04-23.04-23.04 10.24-23.04 23.04z" fill="#E0BF57" p-id="3431"></path><path d="M107.52 588.288c-16.896 0-30.208-13.312-30.208-30.208 0-16.896 13.312-30.208 30.208-30.208s30.208 13.312 30.208 30.208c0.512 16.384-13.312 30.208-30.208 30.208z m0-45.568c-8.704 0-15.36 6.656-15.36 15.36s6.656 15.36 15.36 15.36 15.36-6.656 15.36-15.36-6.656-15.36-15.36-15.36z" fill="#040000" p-id="3432"></path><path d="M1286.144 817.152c0 12.8 10.24 23.04 23.04 23.04s23.04-10.24 23.04-23.04-10.24-23.04-23.04-23.04-23.04 10.24-23.04 23.04z" fill="#E0BF57" p-id="3433"></path><path d="M1292.8 847.36c-16.896 0-30.208-13.312-30.208-30.208 0-16.896 13.312-30.208 30.208-30.208 16.896 0 30.208 13.312 30.208 30.208 0 16.384-13.312 30.208-30.208 30.208z m0-46.08c-8.704 0-15.36 6.656-15.36 15.36s6.656 15.36 15.36 15.36 15.36-6.656 15.36-15.36c0-8.192-7.168-15.36-15.36-15.36z" fill="#040000" p-id="3434"></path><path d="M1062.912 489.472H957.44c-4.096 0-7.68-3.584-7.68-7.68s3.584-7.68 7.68-7.68h105.472c4.096 0 7.68 3.584 7.68 7.68s-3.584 7.68-7.68 7.68z m106.496-46.08h-184.32c-4.096 0-7.68-3.584-7.68-7.68s3.584-7.68 7.68-7.68h184.32c4.096 0 7.68 3.584 7.68 7.68-0.512 4.096-3.584 7.68-7.68 7.68z m38.4 0h-13.824c-4.096 0-7.68-3.584-7.68-7.68s3.584-7.68 7.68-7.68h13.824c4.096 0 7.68 3.584 7.68 7.68s-3.072 7.68-7.68 7.68z m41.472 0h-13.824c-4.096 0-7.68-3.584-7.68-7.68s3.584-7.68 7.68-7.68H1249.28c4.096 0 7.68 3.584 7.68 7.68s-3.584 7.68-7.68 7.68z" fill="#50B676" p-id="3435"></path><path d="M474.624 156.16H424.96c-4.096 0-7.68-3.584-7.68-7.68s3.584-7.68 7.68-7.68h49.664c4.096 0 7.68 3.584 7.68 7.68 0 4.608-3.072 7.68-7.68 7.68z" fill="#040000" p-id="3436"></path><path d="M449.536 181.248c-4.096 0-7.68-3.584-7.68-7.68v-49.664c0-4.096 3.584-7.68 7.68-7.68s7.68 3.584 7.68 7.68v49.664c0 4.096-3.584 7.68-7.68 7.68z m570.88 474.112h-49.664c-4.096 0-7.68-3.584-7.68-7.68s3.584-7.68 7.68-7.68h49.664c4.096 0 7.68 3.584 7.68 7.68 0 4.608-3.584 7.68-7.68 7.68z" fill="#040000" p-id="3437"></path><path d="M995.328 680.448c-4.096 0-7.68-3.584-7.68-7.68v-49.664c0-4.096 3.584-7.68 7.68-7.68s7.68 3.584 7.68 7.68v49.664c0 4.608-3.584 7.68-7.68 7.68z" fill="#040000" p-id="3438"></path><path d="M1079.296 80.384c0 20.992 16.896 37.888 37.888 37.888s37.888-16.896 37.888-37.888-16.896-37.888-37.888-37.888-37.888 16.896-37.888 37.888z" fill="#72B7DA" p-id="3439"></path><path d="M1092.608 125.44h-3.584c-25.088-2.048-44.032-24.064-41.472-49.152 2.048-24.576 24.064-44.032 49.152-41.472 11.776 1.024 23.04 6.656 31.232 15.872 7.68 9.216 11.776 20.992 10.752 32.768-2.56 23.552-22.528 41.984-46.08 41.984z m0-75.776c-15.872 0-29.184 12.288-30.208 28.16-1.536 16.896 11.264 31.744 28.16 32.768 16.896 1.536 31.744-11.264 32.768-28.16 0.512-8.192-2.048-16.384-7.168-22.016-5.12-6.144-12.8-10.24-20.48-10.752h-3.072z" fill="#040000" p-id="3440"></path><path d="M710.144 548.864h69.12v48.64h-69.12v-48.64z" fill="#FADADA" p-id="3441"></path><path d="M860.16 315.904c-17.408-19.456-26.112-31.744-26.112-31.744s-15.872-41.984-24.576-41.472c-8.704 0.512-47.104 29.696-47.104 29.696s-15.872 11.776-27.648 15.872c-11.776 4.096-5.12-3.584-5.12-3.584l-14.848 10.752s-49.664 20.48-61.952 18.944-44.544 24.576-44.544 24.576l3.584 65.536c0 76.288 56.32 145.408 130.56 145.408l26.112-2.56c73.728 0 116.736-60.928 116.736-137.728l-4.608-54.784-20.48-38.912z" fill="#FADADA" p-id="3442"></path><path d="M1141.248 929.28H815.104c-4.096 0-7.68-3.584-7.68-7.68s3.584-7.68 7.68-7.68h326.144c4.096 0 7.68 3.584 7.68 7.68s-3.584 7.68-7.68 7.68z m34.816 0h-9.216c-4.096 0-7.68-3.584-7.68-7.68s3.584-7.68 7.68-7.68h9.216c4.096 0 7.68 3.584 7.68 7.68s-3.584 7.68-7.68 7.68z m-442.368-367.616c-80.384 0-145.92-65.024-145.92-145.92v-49.664c0-4.096 3.584-7.68 7.68-7.68s7.68 3.584 7.68 7.68v49.664c0 72.192 58.368 131.072 131.072 131.072S865.28 488.448 865.28 415.744v-69.12c0-4.096 3.584-7.68 7.68-7.68s7.68 3.584 7.68 7.68V415.232c-1.024 80.896-66.56 146.432-146.944 146.432z" fill="#040000" p-id="3443"></path><path d="M586.24 428.544c-2.048 0-5.12-1.024-6.144-3.072-71.68-101.376-16.384-204.8-15.872-205.824 0 0 0-0.512 0.512-0.512 20.48-32.768 58.368-75.264 122.88-89.088 11.776-2.56 24.064-3.584 36.352-3.584 31.744 0 77.824 8.704 120.832 49.664 9.216 2.048 41.984 12.8 57.344 41.984 34.816 66.56 8.704 148.992-5.12 171.52-3.072 4.608-6.144 9.216-11.776 9.216-2.048 0-5.12-1.024-6.144-3.072-3.072-3.584-2.56-7.68-2.048-11.776 3.584-30.72-17.408-61.952-39.936-79.36-17.92-14.336-27.136-43.52-31.232-61.44-38.912 35.84-93.696 52.224-134.656 64-26.112 7.68-48.128 14.848-55.808 22.528-18.432 18.944-20.48 71.168-19.968 90.112 0 3.584-2.048 6.144-5.12 7.68-2.048 1.024-3.072 1.024-4.096 1.024z m-9.216-202.24c-2.048 4.096-43.008 83.968 2.048 168.96 1.536-24.064 7.168-58.368 23.552-75.264 10.752-10.752 33.28-17.92 62.464-26.624 45.568-13.312 101.888-30.72 138.24-70.144 2.048-2.048 5.12-3.072 7.68-2.048 2.56 0.512 5.12 3.584 5.12 6.144 2.048 13.312 10.752 52.224 28.16 65.536 21.504 16.384 41.472 44.544 45.568 74.24 11.776-30.208 24.064-92.16-2.048-142.336-14.336-27.136-49.152-34.816-49.664-34.816-1.536-0.512-2.56-1.024-3.584-2.048-39.936-38.912-82.944-47.104-111.616-47.104-11.264 0-22.528 1.024-32.768 3.584-58.88 13.312-93.696 51.712-113.152 81.92z m120.832 367.104c-4.096 0-7.68-3.584-7.68-7.68v-35.84c0-4.096 3.584-7.68 7.68-7.68s7.68 3.584 7.68 7.68v35.84c-0.512 4.096-3.584 7.68-7.68 7.68z m68.608 0c-4.096 0-7.68-3.584-7.68-7.68v-34.304c0-4.096 3.584-7.68 7.68-7.68s7.68 3.584 7.68 7.68v34.304c0 4.096-3.584 7.68-7.68 7.68z m358.912 268.8c0 9.216-7.68 16.384-16.384 16.384h-976.384c-9.216 0-16.384-7.68-16.384-16.384s7.68-16.384 16.384-16.384H1108.992c8.704 0 16.384 7.68 16.384 16.384z" fill="#040000" p-id="3444"></path><path d="M697.856 398.848c-2.048 0-4.608-1.024-6.144-2.56-5.12-6.656-11.264-10.24-16.896-10.24-10.24 0-18.432 9.728-18.432 10.24-2.56 3.584-7.68 3.584-10.752 1.024-3.584-2.56-3.584-7.68-1.024-10.752 0.512-0.512 12.8-15.36 30.208-15.36 10.752 0 19.968 5.12 28.672 15.36 2.56 3.584 2.048 7.68-1.024 10.752-1.536 1.024-3.072 1.536-4.608 1.536z m71.168 0c-1.536 0-3.584-0.512-5.12-2.048-3.584-2.56-3.584-7.68-1.024-10.752 0.512-0.512 12.8-15.36 30.208-15.36 10.752 0 19.968 5.12 28.672 15.36 2.56 3.584 2.048 7.68-1.024 10.752-3.584 2.56-7.68 2.048-10.752-1.024-5.12-6.656-11.264-10.24-16.896-10.24-10.24 0-18.432 9.728-18.432 10.24-1.536 2.048-4.096 3.072-5.632 3.072z m-26.112 454.656h-1.024c-4.096-0.512-7.168-4.608-6.144-8.192l36.352-272.896c0.512-3.072 2.56-5.632 5.632-6.144s6.144 0.512 7.68 2.56l68.096 92.16c2.048 3.584 2.048 7.68-1.536 10.752l-51.2 39.936 31.232 36.352c2.048 2.56 2.048 6.144 0.512 9.216l-63.488 86.016c-2.56 3.584-7.168 4.096-10.752 1.536-3.584-2.56-4.096-7.168-1.536-10.752l59.392-81.408-32.256-37.888c-1.536-1.536-2.048-3.584-2.048-5.632 0.512-2.048 1.024-3.584 3.072-5.12l51.712-40.448L783.36 591.36l-33.792 254.464c0 4.608-3.072 7.68-6.656 7.68z" fill="#040000" p-id="3445"></path><path d="M934.912 853.504h-1.024c-4.096-0.512-7.168-4.096-6.144-8.192 5.12-39.424-15.36-124.928-31.232-168.96-14.848-42.496-89.088-65.024-89.6-65.536-4.096-1.024-6.144-5.12-5.12-9.216s5.12-6.144 9.216-5.12c3.584 1.024 81.92 25.6 99.328 75.264 16.896 47.104 37.376 134.144 31.744 176.128 0 2.56-3.584 5.632-7.168 5.632z m-212.992 0c-3.584 0-6.656-2.56-7.68-6.144l-33.792-254.464-53.248 72.192 51.712 40.448c1.536 1.024 2.56 3.072 3.072 5.12 0.512 2.048-0.512 4.096-2.048 5.632l-32.256 37.888 60.928 81.408c2.56 3.584 2.048 7.68-1.536 10.752-3.584 2.56-7.68 2.048-10.752-1.536l-64-86.016c-2.048-2.56-2.048-6.656 0.512-9.216l31.232-36.352-51.2-39.936c-3.584-2.56-3.584-7.168-1.536-10.752l68.608-93.184c2.048-2.56 5.12-3.584 7.68-2.56 3.072 0.512 5.12 3.584 5.632 6.144l36.352 272.896c0.512 4.096-2.048 7.68-6.144 8.192-1.024-0.512-1.536-0.512-1.536-0.512z" fill="#040000" p-id="3446"></path><path d="M697.856 679.936c-1.024 0-2.048-0.512-3.584-0.512-3.584-2.048-5.12-6.144-3.072-10.24l30.208-56.832-30.208-20.48c-3.584-2.048-4.608-7.168-2.048-10.752 2.048-3.584 7.168-4.608 10.752-2.048l35.84 24.064c3.584 2.048 4.096 6.144 2.56 9.728l-33.28 62.976c-2.048 2.56-4.608 4.096-7.168 4.096z" fill="#040000" p-id="3447"></path><path d="M766.976 678.912c-2.56 0-5.12-1.536-6.144-3.584l-35.84-61.44c-2.048-3.584-1.024-7.68 2.048-10.24l35.84-24.064c3.584-2.048 8.192-1.536 10.752 2.048s1.536 8.192-2.048 10.752l-30.208 19.968 32.256 55.296c2.048 3.584 0.512 8.192-2.56 10.24-1.536 0.512-3.072 1.024-4.096 1.024z" fill="#040000" p-id="3448"></path><path d="M565.248 929.792l-341.504-2.048c-16.384 0-30.208-13.312-29.696-30.208l1.536-226.304c0-16.384 13.312-30.208 30.208-29.696l341.504 2.048c16.384 0 30.208 13.312 29.696 30.208l-1.536 226.304c0 16.384-13.824 29.696-30.208 29.696z" fill="#B4897B" p-id="3449"></path><path d="M462.848 644.608c-4.096 0-7.68-3.584-7.68-7.68l0.512-38.912c0-12.288-10.24-22.528-22.528-22.528l-108.032-0.512c-6.144 0-11.776 2.048-15.872 6.144-4.096 4.096-6.656 9.728-6.656 15.872l-0.512 38.912c0 4.096-3.584 7.68-7.68 7.68s-7.68-3.584-7.68-7.68l0.512-38.912c0-10.24 4.096-19.456 11.264-26.624 7.168-7.168 16.896-10.752 26.624-10.752l108.032 0.512c20.48 0 37.376 17.408 37.376 37.888l-0.512 38.912c0.512 4.096-3.072 7.68-7.168 7.68z" fill="#040000" p-id="3450"></path><path d="M547.84 937.472l-341.504-2.048c-10.24 0-19.456-4.096-26.624-11.264-7.168-7.168-10.752-16.384-10.752-26.624l1.536-226.304c0-20.48 16.896-37.376 37.376-37.376l341.504 2.048c20.48 0 37.376 17.408 37.376 37.888l-1.536 226.304c0 20.48-16.896 37.376-37.376 37.376z m-339.456-288.768c-12.288 0-22.528 10.24-22.528 22.528l-1.536 226.304c0 6.144 2.048 11.776 6.144 16.384s9.728 6.656 15.872 6.656l341.504 2.048v7.68-7.68c12.288 0 22.528-10.24 22.528-22.528l1.536-226.304c0-12.288-10.24-22.528-22.528-22.528l-340.992-2.56z" fill="#040000" p-id="3451"></path><path d="M226.816 927.232c-4.096 0-7.68-3.584-7.68-7.68l2.048-271.36c0-4.096 3.584-7.68 7.68-7.68s7.68 3.584 7.68 7.68l-2.048 271.36c0 4.096-3.584 7.68-7.68 7.68z" fill="#040000" p-id="3452"></path><path d="M305.152 868.864s86.528 7.68 143.872-69.632l42.496 68.096s-47.104 64-142.848 80.384c-0.512-0.512-37.888-40.96-43.52-78.848z" fill="#80BE79" p-id="3453"></path><path d="M337.408 962.56c-2.048 0-4.096-0.512-5.632-2.048-1.536-2.048-38.912-43.008-45.056-82.432-0.512-2.048 0.512-4.608 2.048-6.144 1.536-1.536 3.584-2.56 6.144-2.048h5.632c18.944 0 85.504-5.12 131.072-66.56 1.536-2.048 3.584-3.072 6.144-3.072s5.12 1.536 6.144 3.584L486.4 870.912c1.536 2.56 1.536 6.144-0.512 8.192-2.048 2.56-49.664 66.56-147.968 83.456h-0.512z m-33.792-78.336c7.68 27.136 28.672 53.76 36.864 62.976 76.288-14.336 119.296-59.392 131.072-72.704l-34.304-53.76c-47.104 55.808-110.08 62.464-133.632 63.488z" fill="#040000" p-id="3454"></path><path d="M603.648 795.136l-61.44-0.512c-7.68 0-13.312-6.144-13.312-13.312v-13.312c0-7.68 6.144-13.312 13.312-13.312l61.44 0.512c7.68 0 13.312 6.144 13.312 13.312v13.312c0.512 7.168-5.632 13.312-13.312 13.312z m38.4 51.2l-61.44-0.512c-7.68 0-13.312-6.144-13.312-13.312v-13.312c0-7.68 6.144-13.312 13.312-13.312l61.44 0.512c7.68 0 13.312 6.144 13.312 13.312v13.312c0.512 7.168-5.632 13.312-13.312 13.312z m-26.624 56.32l-61.44-0.512c-7.68 0-13.312-6.144-13.312-13.312v-13.312c0-7.68 6.144-13.312 13.312-13.312l61.44 0.512c7.68 0 13.312 6.144 13.312 13.312v13.312c0.512 7.68-5.632 13.824-13.312 13.312z m-0.512 55.808l-61.44-0.512c-7.68 0-13.312-6.144-13.312-13.312v-13.312c0-7.68 6.144-13.312 13.312-13.312l61.44 0.512c7.68 0 13.312 6.144 13.312 13.312v13.312c1.024 7.68-5.632 13.824-13.312 13.312z m-102.4-58.368l-47.616-0.512c-7.68 0-13.312-6.144-13.312-13.312v-13.312c0-7.68 6.144-13.312 13.312-13.312l47.616 0.512c7.68 0 13.312 6.144 13.312 13.312v13.312c0.512 7.168-5.632 13.312-13.312 13.312z m0 55.296l-47.616-0.512c-7.68 0-13.312-6.144-13.312-13.312v-13.312c0-7.68 6.144-13.312 13.312-13.312l47.616 0.512c7.68 0 13.312 6.144 13.312 13.312v13.312c0.512 7.168-6.144 13.312-13.312 13.312z" fill="#EFC31D" p-id="3455"></path><path d="M589.824 802.816l-61.952-0.512c-11.776 0-20.992-9.728-20.992-21.504v-13.312c0-11.776 9.216-20.992 20.992-20.992l61.952 0.512c5.632 0 10.752 2.048 14.848 6.144 4.096 4.096 6.144 9.216 6.144 14.848v13.312c0 11.776-9.216 21.504-20.992 21.504z m-61.44-40.96c-3.584 0-6.144 2.56-6.144 6.144v13.312c0 3.584 2.56 6.144 6.144 6.144l61.44 0.512v7.68-7.68c3.584 0 6.144-2.56 6.144-6.144V768.512c0-1.536-0.512-3.072-2.048-4.096-1.024-1.024-2.56-2.048-4.096-2.048l-61.44-0.512z" fill="#040000" p-id="3456"></path><path d="M627.712 853.504l-61.952-0.512c-5.632 0-10.752-2.048-14.848-6.144s-6.144-9.216-6.144-14.848v-13.312c0-11.776 9.216-20.992 20.992-20.992l61.952 0.512c11.776 0 20.992 9.728 20.992 21.504v13.312c0 11.264-9.728 20.48-20.992 20.48z m-61.952-40.96c-3.584 0-6.144 2.56-6.144 6.144v13.312c0 1.536 0.512 3.072 2.048 4.096 1.024 1.024 2.56 2.048 4.096 2.048l61.44 0.512v7.68-7.68c3.584 0 6.144-2.56 6.144-6.144v-13.312c0-3.584-2.56-6.144-6.144-6.144l-61.44-0.512z" fill="#040000" p-id="3457"></path><path d="M602.624 908.288l-61.952-0.512c-5.632 0-10.752-2.048-14.848-6.144-4.096-4.096-6.144-9.216-6.144-14.848v-13.312c0-11.776 9.216-20.992 20.992-20.992l61.952 0.512c5.632 0 10.752 2.048 14.848 6.144 4.096 4.096 6.144 9.216 6.144 14.848v13.312c0 11.776-9.728 20.992-20.992 20.992z m-61.952-40.96c-3.584 0-6.144 2.56-6.144 6.144v13.312c0 1.536 0.512 3.072 2.048 4.096 1.024 1.024 2.56 2.048 4.096 2.048l61.44 0.512v7.68-7.68c3.584 0 6.144-2.56 6.144-6.144v-13.312c0-1.536-0.512-3.072-2.048-4.096-1.024-1.024-2.56-2.048-4.096-2.048l-61.44-0.512z" fill="#040000" p-id="3458"></path><path d="M514.048 907.776s-0.512 0 0 0l-61.952-0.512c-5.632 0-10.752-2.048-14.848-6.144s-6.144-9.216-6.144-14.848v-13.312c0-11.776 9.216-20.992 20.992-20.992l61.952 0.512c5.632 0 10.752 2.048 14.848 6.144 4.096 4.096 6.144 9.216 6.144 14.848v13.312c0 11.264-9.728 20.992-20.992 20.992z m-61.44-40.96c-3.584 0-6.144 2.56-6.144 6.144v13.312c0 1.536 0.512 3.072 2.048 4.096s2.56 2.048 4.096 2.048l61.44 0.512v7.68-7.68c3.584 0 6.144-2.56 6.144-6.144v-13.312c0-1.536-0.512-3.072-2.048-4.096-1.024-1.024-2.56-2.048-4.096-2.048l-61.44-0.512z" fill="#040000" p-id="3459"></path><path d="M513.536 962.56s-0.512 0 0 0l-61.952-0.512c-5.632 0-10.752-2.048-14.848-6.144-4.096-4.096-6.144-9.216-6.144-14.848v-13.312c0-11.776 9.216-20.992 20.992-20.992l61.952 0.512c5.632 0 10.752 2.048 14.848 6.144 4.096 4.096 6.144 9.216 6.144 14.848v13.312c0 11.776-9.728 20.992-20.992 20.992z m-61.44-40.448c-3.584 0-6.144 2.56-6.144 6.144v13.312c0 1.536 0.512 3.072 2.048 4.096s2.56 2.048 4.096 2.048l61.44 0.512v7.68-8.192c3.584 0 6.144-2.56 6.144-6.144v-13.312c0-1.536-0.512-3.072-2.048-4.096s-2.56-2.048-4.096-2.048h-61.44z" fill="#040000" p-id="3460"></path><path d="M602.112 963.584l-61.952-0.512c-5.632 0-10.752-2.048-14.848-6.144-4.096-4.096-6.144-9.216-6.144-14.848v-13.312c0-11.776 9.216-20.992 20.992-20.992l61.952 0.512c5.632 0 10.752 2.048 14.848 6.144 4.096 4.096 6.144 9.216 6.144 14.848v13.312c0 11.776-9.216 20.992-20.992 20.992z m-61.44-40.96c-3.584 0-6.144 2.56-6.144 6.144v13.312c0 1.536 0.512 3.072 2.048 4.096 1.024 1.024 2.56 2.048 4.096 2.048l61.44 0.512v7.68-7.68c3.584 0 6.144-2.56 6.144-6.144v-13.312c0-1.536-0.512-3.072-2.048-4.096-1.024-1.024-2.56-2.048-4.096-2.048l-61.44-0.512z" fill="#040000" p-id="3461"></path><path d="M387.072 891.392c0 6.144 5.12 10.752 10.752 10.752 6.144 0 10.752-5.12 10.752-10.752 0-6.144-5.12-10.752-10.752-10.752s-10.752 5.12-10.752 10.752zM194.048 883.2h-10.24v-37.376h10.24v37.376z" fill="#FFFFFF" p-id="3462"></path></svg>