<?xml version="1.0" standalone="no"?><!DOCTYPE svg PUBLIC "-//W3C//DTD SVG 1.1//EN" "http://www.w3.org/Graphics/SVG/1.1/DTD/svg11.dtd"><svg class="icon" width="48px" height="48.00px" viewBox="0 0 1024 1024" version="1.1" xmlns="http://www.w3.org/2000/svg"><path d="M311.1209 601.091084c0 7.03523 5.691629 12.727882 12.727882 12.727882l381.821125 0c7.03523 0 12.727882-5.691629 12.727882-12.727882 0-7.03523-5.691629-12.727882-12.727882-12.727882L323.848783 588.363202C316.812529 588.364225 311.1209 594.055854 311.1209 601.091084z" fill="#F08080" /><path d="M705.669908 664.72845 323.848783 664.72845c-7.03523 0-12.727882 5.691629-12.727882 12.727882 0 7.03523 5.691629 12.727882 12.727882 12.727882l381.821125 0c7.03523 0 12.727882-5.691629 12.727882-12.727882C718.396767 670.420079 712.705138 664.72845 705.669908 664.72845z" fill="#F08080" /><path d="M234.756675 588.364225l-50.909483 0c-14.068414 0-25.454742 11.398608-25.454742 25.454742l0 50.909483c0 14.056134 11.386328 25.454742 25.454742 25.454742l50.909483 0c14.068414 0 25.454742-11.398608 25.454742-25.454742l0-50.909483C260.211417 599.762833 248.826112 588.364225 234.756675 588.364225z" fill="#F08080" /><path d="M323.848783 435.635775l203.637933 0c7.03523 0 12.727882-5.691629 12.727882-12.727882 0-7.03523-5.691629-12.727882-12.727882-12.727882l-203.637933 0c-7.03523 0-12.727882 5.691629-12.727882 12.727882C311.1209 429.944146 316.812529 435.635775 323.848783 435.635775z" fill="#F08080" /><path d="M323.848783 512l203.637933 0c7.03523 0 12.727882-5.691629 12.727882-12.727882 0-7.03523-5.691629-12.727882-12.727882-12.727882l-203.637933 0c-7.03523 0-12.727882 5.691629-12.727882 12.727882C311.1209 506.308371 316.812529 512 323.848783 512z" fill="#F08080" /><path d="M234.756675 410.181033l-50.909483 0c-14.068414 0-25.454742 11.398608-25.454742 25.454742l0 50.909483c0 14.056134 11.386328 25.454742 25.454742 25.454742l50.909483 0c14.068414 0 25.454742-11.398608 25.454742-25.454742l0-50.909483C260.211417 421.579641 248.826112 410.181033 234.756675 410.181033z" fill="#F08080" /><path d="M527.486716 766.547417l-203.637933 0c-7.03523 0-12.727882 5.691629-12.727882 12.727882 0 7.03523 5.691629 12.727882 12.727882 12.727882l203.637933 0c7.03523 0 12.727882-5.691629 12.727882-12.727882C540.213575 772.239046 534.521946 766.547417 527.486716 766.547417z" fill="#F08080" /><path d="M527.486716 842.911642l-203.637933 0c-7.03523 0-12.727882 5.691629-12.727882 12.727882 0 7.03523 5.691629 12.727882 12.727882 12.727882l203.637933 0c7.03523 0 12.727882-5.691629 12.727882-12.727882C540.213575 848.603271 534.521946 842.911642 527.486716 842.911642z" fill="#F08080" /><path d="M234.756675 766.547417l-50.909483 0c-14.068414 0-25.454742 11.398608-25.454742 25.454742l0 50.909483c0 14.056134 11.386328 25.454742 25.454742 25.454742l50.909483 0c14.068414 0 25.454742-11.398608 25.454742-25.454742l0-50.909483C260.211417 777.946025 248.826112 766.547417 234.756675 766.547417z" fill="#F08080" /><path d="M323.848783 257.452583l203.637933 0c7.03523 0 12.727882-5.691629 12.727882-12.727882 0-7.03523-5.691629-12.727882-12.727882-12.727882l-203.637933 0c-7.03523 0-12.727882 5.691629-12.727882 12.727882C311.1209 251.760954 316.812529 257.452583 323.848783 257.452583z" fill="#F08080" /><path d="M323.848783 333.816808l203.637933 0c7.03523 0 12.727882-5.691629 12.727882-12.727882 0-7.03523-5.691629-12.727882-12.727882-12.727882l-203.637933 0c-7.03523 0-12.727882 5.691629-12.727882 12.727882C311.1209 328.125179 316.812529 333.816808 323.848783 333.816808z" fill="#F08080" /><path d="M234.756675 231.997841l-50.909483 0c-14.068414 0-25.454742 11.398608-25.454742 25.454742l0 50.909483c0 14.056134 11.386328 25.454742 25.454742 25.454742l50.909483 0c14.068414 0 25.454742-11.398608 25.454742-25.454742l0-50.909483C260.211417 243.396449 248.826112 231.997841 234.756675 231.997841z" fill="#F08080" /><path d="M820.215734 160.9149 820.215734 104.724133c0-14.057157-11.386328-25.454742-25.454742-25.454742L565.668317 79.269391 565.668317 53.81465c0-14.057157-11.386328-25.454742-25.454742-25.454742l-25.454742 0c0-14.057157-11.386328-25.454742-25.454742-25.454742l-101.818967 0c-14.068414 0-25.454742 11.397584-25.454742 25.454742l-25.454742 0c-14.068414 0-25.454742 11.397584-25.454742 25.454742l0 25.454742L82.028225 79.269391c-14.068414 0-25.454742 11.397584-25.454742 25.454742l0 890.915959c0 14.056134 11.386328 25.454742 25.454742 25.454742l509.094834 0 203.637933 0c14.068414 0 25.454742-11.398608 25.454742-25.454742l0-203.637933L820.215734 532.172435c84.343967-19.763113 147.20976-95.244224 147.20976-185.628768S904.559701 180.678012 820.215734 160.9149zM776.515443 537.454742l0 254.547417-134.482901 0c-27.990494 0-50.909483 22.906709-50.909483 50.909483l0 127.273708-458.18535 0c-14.020318 0-25.454742-11.434423-25.454742-25.454742L107.482967 155.633616c0-14.033621 11.434423-25.454742 25.454742-25.454742l178.183192 0c0 14.056134 11.386328 25.454742 25.454742 25.454742l203.637933 0c14.068414 0 25.454742-11.398608 25.454742-25.454742l185.392384 0c14.020318 0 25.454742 11.42112 25.454742 25.454742-105.448634 0-190.910051 85.461417-190.910051 190.910051S671.066809 537.454742 776.515443 537.454742zM616.5778 970.18535 616.5778 842.911642c0-14.033621 11.434423-25.454742 25.454742-25.454742L758.765173 817.4569l16.45681 0.37146L616.5778 970.18535zM463.84935 28.359908c14.068414 0 25.454742 11.397584 25.454742 25.454742l-101.818967 0c0-14.057157 11.386328-25.454742 25.454742-25.454742L463.84935 28.359908zM820.215734 388.939243l-43.700291 71.678506-17.673521 28.985148L656.475486 384.675126l36.440957-35.544541 56.5786 57.993832 27.0204-44.309158 43.700291-71.680553 36.392862-59.658751 43.451628 26.498514L820.215734 388.939243z" fill="#F08080" /></svg>