<?xml version="1.0" standalone="no"?><!DOCTYPE svg PUBLIC "-//W3C//DTD SVG 1.1//EN" "http://www.w3.org/Graphics/SVG/1.1/DTD/svg11.dtd"><svg class="icon" width="1024px" height="1024.00px" viewBox="0 0 1024 1024" version="1.1" xmlns="http://www.w3.org/2000/svg"><path d="M931.87943915 858.97237031l-191.27840436-423.54503446h139.35997818c30.05802647 0 54.65097607-24.59292598 54.650976-54.6509759 0-19.12784982-10.93019993-35.52312617-24.59295001-46.45332594l-357.96385845-262.32465616c-8.19764987-8.19764987-21.86039963-10.93019993-32.79057607-10.93020025-10.93019993 0-24.59292598 2.73255009-32.79059963 10.93020025l-360.69640859 265.05720607c-19.12784982 13.66274954-27.32547601 40.98822625-19.12782663 62.84862575s27.32547601 38.25567615 51.91840307 38.25567651h139.35997781l-191.27838088 423.54503417c-8.19764987 16.39529985-5.46509997 38.25567615 2.73252665 51.91842573 10.93019993 16.39529985 27.32547601 24.59292598 46.45332604 24.59292628h724.12539069c19.12784982 0 35.52312617-10.93019993 46.45332571-24.59292628 10.93019993-19.12784982 10.93019993-38.25567615 5.46510047-54.65097577z m-327.90583279-333.37093217c-8.19764987 13.66274954-24.59292598 5.46509997-24.59294954 5.46509999-10.93019993-5.46509997-30.05802647-16.39529985-62.84860248-16.39530027-38.25567615 0-51.91842623 21.86039963-51.91842578 43.72077637 0 27.32547601 19.12784982 38.25567615 62.84862555 57.38352581 51.91842623 21.86039963 79.2439022 46.45332609 79.24390246 92.90665201 0 40.98822625-27.32547601 76.5113519-79.24390246 84.70900226v30.05804975c0 8.19764987-8.19764987 16.39529985-16.39529973 16.39527652s-16.39529985-8.19764987-16.39529971-16.39527652v-27.32549988c-30.05802647 0-60.1160761-8.19764987-76.51135215-21.86037606 0 0-21.86039963-13.66274954-10.93019995-30.05804977 8.19764987-16.39529985 24.59292598-5.46509997 24.59294968-5.4650768 19.12784982 10.93019993 43.72077626 21.86039963 71.04625225 21.86037657 35.52312617 0 60.1160761-21.86039963 60.11607618-49.18587594s-19.12784982-43.72077626-57.383526-60.11607603c-51.91842623-19.12784982-81.97645241-43.72077626-81.97645238-87.44155211 0-40.98822625 30.05802647-73.77880237 76.5113519-81.97645206v-27.32547619c0-8.19764987 8.19764987-16.39529985 16.39530014-16.39529961s16.39529985 8.19764987 16.3952764 16.39529961v24.59292581c30.05802647 0 49.1858762 8.19764987 65.58117573 16.39530017-5.46509997 2.73255009 16.39529985 13.66274954 5.46509989 30.05802637z" fill="#bfbfbf" /></svg>