<?xml version="1.0" standalone="no"?><!DOCTYPE svg PUBLIC "-//W3C//DTD SVG 1.1//EN" "http://www.w3.org/Graphics/SVG/1.1/DTD/svg11.dtd"><svg t="1502263107740" class="icon" style="" viewBox="0 0 1024 1024" version="1.1" xmlns="http://www.w3.org/2000/svg" p-id="35584" xmlns:xlink="http://www.w3.org/1999/xlink" width="64" height="64"><defs><style type="text/css"></style></defs><path d="M506.113 922.791L351.167 657.269s-167.753 66.305-225.961 106.192c-58.208 39.919-83.92 160.991-83.92 160.991h931.283s-17.072-114.018-85.537-160.991c-58.219-39.888-225.973-106.192-225.973-106.192L506.113 922.791z m0-212.426l-51.652 53.096 25.832 53.117-77.484 106.213h206.598l-77.473-106.213 25.82-53.117-51.641-53.096z m5.546-608.78c227.459 0 227.86 177.348 227.86 277.055 0 99.696-91.148 284.989-227.86 285.195-136.723 0.228-227.861-185.499-227.861-285.195 0-99.706 0.402-277.055 227.861-277.055" p-id="35585" fill="#2aa515"></path></svg>